<svg aria-hidden="true" style="position: absolute; width: 0; height: 0; overflow: hidden;" version="1.1" xmlns="http://www.w3.org/2000/svg" xmlns:xlink="http://www.w3.org/1999/xlink">
<defs>
<symbol id="icon-menu" viewBox="0 0 32 32">
<path d="M2.666 8c0-0.354 0.14-0.693 0.391-0.943s0.589-0.391 0.943-0.391h24c0.354 0 0.693 0.14 0.943 0.391s0.39 0.589 0.39 0.943c0 0.354-0.14 0.693-0.39 0.943s-0.589 0.391-0.943 0.391h-24c-0.354 0-0.693-0.14-0.943-0.391s-0.391-0.589-0.391-0.943zM2.666 16.043c0-0.354 0.14-0.693 0.391-0.943s0.589-0.39 0.943-0.39h24c0.354 0 0.693 0.14 0.943 0.39s0.39 0.589 0.39 0.943c0 0.354-0.14 0.693-0.39 0.943s-0.589 0.39-0.943 0.39h-24c-0.354 0-0.693-0.14-0.943-0.39s-0.391-0.589-0.391-0.943zM4 22.752c-0.354 0-0.693 0.141-0.943 0.39s-0.391 0.589-0.391 0.943 0.14 0.693 0.391 0.943c0.25 0.25 0.589 0.39 0.943 0.39h24c0.354 0 0.693-0.14 0.943-0.39s0.39-0.589 0.39-0.943c0-0.354-0.14-0.693-0.39-0.943s-0.589-0.39-0.943-0.39h-24z"></path>
</symbol>
<symbol id="icon-close" viewBox="0 0 32 32">
<path d="M19.141 16.123l10.677-10.667c0.339-0.384 0.546-0.892 0.546-1.448 0-1.212-0.983-2.195-2.195-2.195-0.557 0-1.065 0.207-1.452 0.549l0.002-0.002-10.675 10.56-10.747-10.739c-0.378-0.317-0.87-0.51-1.407-0.51-1.214 0-2.197 0.984-2.197 2.197 0 0.536 0.192 1.028 0.511 1.409l-0.003-0.003 10.72 10.845-10.499 10.363c-0.488 0.405-0.796 1.011-0.796 1.69 0 1.211 0.981 2.192 2.192 2.192 0.361 0 0.702-0.087 1.003-0.242l-0.012 0.006c0.28-0.138 0.517-0.323 0.71-0.546l0.002-0.003 10.477-10.469 10.413 10.403c0.375 0.307 0.86 0.493 1.388 0.493 1.215 0 2.2-0.985 2.2-2.2 0-0.527-0.185-1.011-0.495-1.39l0.003 0.004-10.368-10.296z"></path>
</symbol>
</defs>
</svg>
